<svg xmlns="http://www.w3.org/2000/svg" width="407.674" height="421.414" viewBox="0 0 407.674 421.414">
  <g id="Component_1_8" data-name="Component 1 – 8" transform="translate(407.674 142.349) rotate(120)" opacity="0.18">
    <path id="Path_3331" data-name="Path 3331" d="M30.447,81.7q-.133,1.416-.134,2.828a29.4,29.4,0,0,0,39.8,27.506C108.139,193.751,218.154,175.764,244.448,99A50.806,50.806,0,0,0,276.977,51.34C276.949,24.917,257.657,3.011,232.1.381a3.825,3.825,0,0,0-.766,7.611c21.64,2.226,37.975,20.858,38,43.339.02,19.107-11.929,36.7-30.387,41.489-2.911.757-3.7,7.13-3.766,7.724-23.254,65.03-129.565,81.652-158.708,5.248a4.527,4.527,0,0,0-2.2-2.748,3.828,3.828,0,0,0-3.508.2A21.738,21.738,0,0,1,37.956,84.535a21.881,21.881,0,0,1,.553-4.887,3.835,3.835,0,0,0-3.032-4.62A34.082,34.082,0,0,1,7.685,41.559C7.667,24.242,22.2,9.047,40.079,7.682a3.826,3.826,0,0,0-.3-7.64c-.1,0-.2,0-.3.013C17.344,1.74.021,19.968.043,41.551A41.767,41.767,0,0,0,30.447,81.7Z" transform="translate(85.015 0) rotate(31)" fill="#174895" opacity="0.27"/>
  </g>
</svg>
